<?xml version="1.0" encoding="UTF-8"?>
<svg xmlns="http://www.w3.org/2000/svg" xmlns:xlink="http://www.w3.org/1999/xlink" viewBox="0 0 100 100" width="100px" height="100px">
<g id="surface4604348">
<path style=" stroke:none;fill-rule:nonzero;fill:rgb(29.019609%,56.470591%,88.627452%);fill-opacity:1;" d="M 87.21875 47.144531 C 86.75 35.667969 77.265625 26.480469 65.679688 26.480469 C 63.683594 26.480469 61.769531 26.742188 59.867188 27.277344 C 55.480469 20.707031 48.078125 16.679688 40.199219 16.679688 C 27.621094 16.679688 17.316406 26.601562 16.710938 39.035156 C 7.515625 41.5625 1 50.054688 1 59.800781 C 1 71.691406 10.667969 81.359375 22.558594 81.359375 L 81.359375 81.359375 C 91.089844 81.359375 99 73.449219 99 63.71875 C 99 56.210938 94.128906 49.480469 87.21875 47.144531 Z M 50 70.410156 L 36.855469 57.265625 L 39.625 54.496094 L 48.039062 62.910156 L 48.039062 40.199219 L 51.960938 40.199219 L 51.960938 62.910156 L 60.375 54.496094 L 63.144531 57.265625 Z M 50 70.410156 "/>
</g>
</svg>
