<?xml version="1.0" encoding="UTF-8"?>
<svg xmlns="http://www.w3.org/2000/svg" xmlns:xlink="http://www.w3.org/1999/xlink" viewBox="0 0 64 64" width="64px" height="64px">
<g id="surface96250500">
<path style=" stroke:none;fill-rule:nonzero;fill:rgb(92.54902%,94.117647%,94.509804%);fill-opacity:1;" d="M 6.75 51 L 29.25 51 L 29.25 57 L 6.75 57 Z M 34.75 51 L 57.25 51 L 57.25 57 L 34.75 57 Z M 34.75 51 "/>
<path style=" stroke:none;fill-rule:nonzero;fill:rgb(100%,100%,100%);fill-opacity:1;" d="M 54.75 51 L 51.25 27.5 L 48.75 27.5 L 48.75 20 C 48.75 18.601562 47.648438 17.5 46.25 17.5 L 44.25 17.5 L 44.25 11.5 C 44.25 10.949219 43.800781 10.5 43.25 10.5 L 36.25 10.5 C 35.699219 10.5 35.25 10.949219 35.25 11.5 L 35.25 17.5 L 28.75 17.5 L 28.75 11.5 C 28.75 10.949219 28.300781 10.5 27.75 10.5 L 20.75 10.5 C 20.199219 10.5 19.75 10.949219 19.75 11.5 L 19.75 17.5 L 17.75 17.5 C 16.351562 17.5 15.25 18.601562 15.25 20 L 15.25 27.5 L 12.75 27.5 L 9.25 51 L 11.75 51 L 11.75 57 L 29.25 57 L 29.25 51 L 26.75 51 L 26.75 27.5 L 37.25 27.5 L 37.25 51 L 39.75 51 L 39.75 57 L 57.25 57 L 57.25 51 Z M 54.75 51 "/>
<path style=" stroke:none;fill-rule:nonzero;fill:rgb(92.54902%,94.117647%,94.509804%);fill-opacity:1;" d="M 10 46 C 16.148438 45.949219 21.25 30.75 22.5 10.5 L 20.75 10.5 C 20.199219 10.5 19.75 10.949219 19.75 11.5 L 19.75 17.5 L 17.75 17.5 C 16.351562 17.5 15.25 18.601562 15.25 20 L 15.25 27.5 L 12.75 27.5 Z M 10 46 "/>
<path style=" stroke:none;fill-rule:nonzero;fill:rgb(100%,100%,100%);fill-opacity:1;" d="M 26.75 27.5 L 22.25 27.5 L 22.25 42 C 22.25 44.75 20 47 17.25 47 L 15.550781 47 C 14.550781 47 13.75 47.699219 13.601562 48.699219 L 13.601562 48.75 C 13.398438 49.949219 14.351562 51 15.550781 51 L 24.25 51 L 24.25 57 L 29.25 57 L 29.25 51 L 26.75 51 Z M 54.75 51 L 51.25 27.5 L 48.75 27.5 L 48.75 20 C 48.75 18.601562 47.648438 17.5 46.25 17.5 L 43.25 17.5 C 44.648438 17.5 45.75 18.601562 45.75 20 L 45.75 27.5 L 37.25 27.5 L 37.25 37.449219 C 42.300781 36.949219 46.25 32.699219 46.25 27.5 L 46.851562 27.5 L 48.898438 41.25 C 49.351562 44.25 47 47 43.949219 47 L 43.25 47 C 42.148438 47 41.25 47.898438 41.25 49 C 41.25 50.101562 42.148438 51 43.25 51 L 52.25 51 L 52.25 57 L 57.25 57 L 57.25 51 Z M 54.75 51 "/>
<path style="fill:none;stroke-width:8.0625;stroke-linecap:round;stroke-linejoin:round;stroke:rgb(20.392157%,28.627452%,36.862746%);stroke-opacity:1;stroke-miterlimit:10;" d="M 18.140625 137.0625 L 78.609375 137.0625 L 78.609375 153.1875 L 18.140625 153.1875 Z M 71.890625 73.90625 L 71.890625 137.0625 L 24.859375 137.0625 L 34.265625 73.90625 L 50.390625 73.90625 M 53.078125 30.90625 C 53.078125 29.426025 54.2854 28.21875 55.765625 28.21875 L 74.578125 28.21875 C 76.05835 28.21875 77.265625 29.426025 77.265625 30.90625 L 77.265625 47.03125 M 94.734375 47.03125 L 94.734375 30.90625 C 94.734375 29.426025 95.94165 28.21875 97.421875 28.21875 L 116.234375 28.21875 C 117.7146 28.21875 118.921875 29.426025 118.921875 30.90625 L 118.921875 47.03125 M 40.984375 63.15625 L 40.984375 53.75 C 40.984375 49.991699 43.944824 47.03125 47.703125 47.03125 L 124.296875 47.03125 C 128.055176 47.03125 131.015625 49.991699 131.015625 53.75 L 131.015625 63.15625 M 147.140625 137.0625 L 100.109375 137.0625 L 100.109375 73.90625 L 137.734375 73.90625 Z M 93.390625 137.0625 L 153.859375 137.0625 L 153.859375 153.1875 L 93.390625 153.1875 Z M 93.390625 137.0625 " transform="matrix(0.372093,0,0,0.372093,0,0)"/>
<path style="fill-rule:nonzero;fill:rgb(100%,100%,100%);fill-opacity:1;stroke-width:8.0625;stroke-linecap:round;stroke-linejoin:round;stroke:rgb(20.392157%,28.627452%,36.862746%);stroke-opacity:1;stroke-miterlimit:10;" d="M 97.421875 87.34375 L 74.578125 87.34375 C 67.1875 87.34375 61.140625 81.296875 61.140625 73.90625 C 61.140625 66.515625 67.1875 60.46875 74.578125 60.46875 L 97.421875 60.46875 C 104.8125 60.46875 110.859375 66.515625 110.859375 73.90625 C 110.859375 81.296875 104.8125 87.34375 97.421875 87.34375 Z M 97.421875 87.34375 " transform="matrix(0.372093,0,0,0.372093,0,0)"/>
</g>
</svg>
