<?xml version="1.0" encoding="UTF-8"?>
<svg xmlns="http://www.w3.org/2000/svg" xmlns:xlink="http://www.w3.org/1999/xlink" viewBox="0 0 96 96" width="125px" height="118px">
<g xmlns="http://www.w3.org/2000/svg" id="surface17986637">
  <path style="fill-rule:nonzero;fill:rgb(38.039216%,38.039216%,38.039216%);fill-opacity:1;stroke-width:10;stroke-linecap:butt;stroke-linejoin:round;stroke:rgb(80.000001%,80.000001%,80.000001%);stroke-opacity:1;stroke-miterlimit:10;" d="M 84.104057 169.488172 L 60.197394 145.581509 C 54.968737 149.47708 48.621769 151.580393 42.104463 151.580393 C 25.277964 151.580393 11.636057 137.945892 11.636057 121.119393 C 11.636057 104.292894 25.277964 90.650987 42.104463 90.650987 C 58.930962 90.650987 72.572869 104.292894 72.572869 121.119393 C 72.572869 127.636699 70.462151 133.983666 66.566579 139.212323 L 90.473243 163.118987 Z M 84.104057 169.488172 " transform="matrix(0.527442,0,0,0.527442,2.64,2.64)"/>
  <path style="fill-rule:nonzero;fill:rgb(73.333335%,87.058824%,98.431373%);fill-opacity:1;stroke-width:10;stroke-linecap:butt;stroke-linejoin:round;stroke:rgb(80.000001%,80.000001%,80.000001%);stroke-opacity:1;stroke-miterlimit:10;" d="M 65.403832 121.119393 C 65.403832 134.020697 55.005767 144.411356 42.104463 144.411356 C 29.20316 144.411356 18.805094 134.020697 18.805094 121.119393 C 18.805094 108.218089 29.20316 97.820024 42.104463 97.820024 C 55.005767 97.820024 65.403832 108.218089 65.403832 121.119393 " transform="matrix(0.527442,0,0,0.527442,2.64,2.64)"/>
  <path style="fill-rule:nonzero;fill:rgb(89.019608%,94.901961%,99.215686%);fill-opacity:1;stroke-width:10;stroke-linecap:butt;stroke-linejoin:round;stroke:rgb(80.000001%,80.000001%,80.000001%);stroke-opacity:1;stroke-miterlimit:10;" d="M 51.065759 117.534875 C 49.628989 117.534875 48.199626 117.171979 47.118345 116.098105 C 44.252212 113.231971 39.956715 113.231971 37.083175 116.098105 C 34.935427 118.25326 31.350908 118.25326 29.558649 116.098105 C 27.4109 113.950356 27.4109 110.365838 29.558649 108.573579 C 36.372196 101.404542 47.83673 101.404542 54.650277 108.573579 C 56.798026 110.721327 56.798026 113.950356 54.650277 116.098105 C 53.576403 117.171979 52.495123 117.534875 51.065759 117.534875 Z M 51.065759 117.534875 " transform="matrix(0.527442,0,0,0.527442,2.64,2.64)"/>
  <path style="fill-rule:nonzero;fill:rgb(21.568628%,27.843139%,30.980393%);fill-opacity:1;stroke-width:10;stroke-linecap:butt;stroke-linejoin:round;stroke:rgb(80.000001%,80.000001%,80.000001%);stroke-opacity:1;stroke-miterlimit:10;" d="M 75.750056 148.3958 L 90.473243 163.118987 L 84.104057 169.488172 L 69.38087 154.764985 Z M 75.750056 148.3958 " transform="matrix(0.527442,0,0,0.527442,2.64,2.64)"/>
  <path style="fill-rule:nonzero;fill:rgb(38.039216%,38.039216%,38.039216%);fill-opacity:1;stroke-width:10;stroke-linecap:butt;stroke-linejoin:round;stroke:rgb(80.000001%,80.000001%,80.000001%);stroke-opacity:1;stroke-miterlimit:10;" d="M 104.559511 114.631711 L 114.698365 104.492857 L 157.771833 147.573731 L 147.640385 157.705179 Z M 104.559511 114.631711 " transform="matrix(0.527442,0,0,0.527442,2.64,2.64)"/>
  <path style="fill-rule:nonzero;fill:rgb(38.039216%,38.039216%,38.039216%);fill-opacity:1;stroke-width:10;stroke-linecap:butt;stroke-linejoin:round;stroke:rgb(80.000001%,80.000001%,80.000001%);stroke-opacity:1;stroke-miterlimit:10;" d="M 128.999408 71.669333 C 128.999408 103.33011 103.33011 128.999408 71.669333 128.999408 C 40.001151 128.999408 14.331852 103.33011 14.331852 71.669333 C 14.331852 40.001151 40.001151 14.331852 71.669333 14.331852 C 103.33011 14.331852 128.999408 40.001151 128.999408 71.669333 Z M 128.999408 71.669333 " transform="matrix(0.527442,0,0,0.527442,2.64,2.64)"/>
  <path style="fill-rule:nonzero;fill:rgb(21.568628%,27.843139%,30.980393%);fill-opacity:1;stroke-width:10;stroke-linecap:butt;stroke-linejoin:round;stroke:rgb(80.000001%,80.000001%,80.000001%);stroke-opacity:1;stroke-miterlimit:10;" d="M 116.298068 126.636885 L 126.436922 116.505437 L 157.601495 147.670009 L 147.46264 157.801458 Z M 116.298068 126.636885 " transform="matrix(0.527442,0,0,0.527442,2.64,2.64)"/>
  <path style="fill-rule:nonzero;fill:rgb(39.215687%,70.980394%,96.470588%);fill-opacity:1;stroke-width:10;stroke-linecap:butt;stroke-linejoin:round;stroke:rgb(80.000001%,80.000001%,80.000001%);stroke-opacity:1;stroke-miterlimit:10;" d="M 118.25326 71.669333 C 118.25326 97.390474 97.390474 118.25326 71.669333 118.25326 C 45.940787 118.25326 25.085407 97.390474 25.085407 71.669333 C 25.085407 45.940787 45.940787 25.085407 71.669333 25.085407 C 97.390474 25.085407 118.25326 45.940787 118.25326 71.669333 Z M 118.25326 71.669333 " transform="matrix(0.527442,0,0,0.527442,2.64,2.64)"/>
  <path style="fill-rule:nonzero;fill: rgb(255 255 255);fill-opacity:1;stroke-width:10;stroke-linecap:butt;stroke-linejoin:round;stroke: rgb(255 255 255);stroke-opacity:1;stroke-miterlimit:10;" d="M 96.035171 56.257386 C 95.672275 56.620281 94.598401 56.975771 93.880016 56.975771 C 92.806142 56.975771 91.732268 56.257386 91.013883 55.539001 C 86.000001 49.806734 79.193859 46.585111 71.669333 46.585111 C 64.144807 46.585111 57.33126 49.806734 52.317378 55.539001 C 51.243504 56.975771 48.73286 57.33126 47.303496 55.901896 C 45.866726 54.828022 45.511237 52.317378 46.940601 50.880608 C 53.035763 43.718978 61.989653 39.416074 71.669333 39.416074 C 81.341608 39.416074 90.302904 43.718978 96.39066 50.880608 C 97.464534 52.317378 97.464534 54.828022 96.035171 56.257386 Z M 96.035171 56.257386 " transform="matrix(0.527442,0,0,0.527442,2.64,2.64)"/>
  <path style=" stroke:none;fill-rule:nonzero;fill: rgb(125 138 139);fill-opacity:1;" d="M 57.789062 63.101562 L 63.136719 57.753906 L 85.855469 80.476562 L 80.511719 85.820312 Z M 57.789062 63.101562 "/>
  <path style=" stroke:none;fill-rule:nonzero;fill: rgb(120 137 139);fill-opacity:1;" d="M 40.441406 10.199219 C 23.738281 10.199219 10.199219 23.738281 10.199219 40.441406 C 10.199219 57.140625 23.738281 70.679688 40.441406 70.679688 C 57.140625 70.679688 70.679688 57.140625 70.679688 40.441406 C 70.679688 23.738281 57.140625 10.199219 40.441406 10.199219 Z M 40.441406 10.199219 "/>
  <path style=" stroke:none;fill-rule:nonzero;fill: rgb(125 138 139);fill-opacity:1;" d="M 63.980469 69.433594 L 69.328125 64.089844 L 85.765625 80.527344 L 80.417969 85.871094 Z M 63.980469 69.433594 "/>
  <path style=" stroke:none;fill-rule:nonzero;fill: rgb(43 121 173);fill-opacity:1;" d="M 40.441406 15.871094 C 26.871094 15.871094 15.871094 26.871094 15.871094 40.441406 C 15.871094 54.007812 26.871094 65.011719 40.441406 65.011719 C 54.007812 65.011719 65.011719 54.007812 65.011719 40.441406 C 65.011719 26.871094 54.007812 15.871094 40.441406 15.871094 Z M 40.441406 15.871094 "/>
  <path style=" stroke:none;fill-rule:nonzero;fill:rgb(73.333335%,87.058824%,98.431373%);fill-opacity:1;" d="M 53.480469 29.476562 C 50.269531 25.699219 45.542969 23.429688 40.441406 23.429688 C 35.335938 23.429688 30.613281 25.699219 27.398438 29.476562 C 26.644531 30.234375 26.832031 31.558594 27.589844 32.125 C 28.34375 32.878906 29.667969 32.691406 30.234375 31.933594 C 32.878906 28.910156 36.472656 27.210938 40.441406 27.210938 C 44.410156 27.210938 48 28.910156 50.644531 31.933594 C 51.023438 32.3125 51.589844 32.691406 52.15625 32.691406 C 52.535156 32.691406 53.101562 32.503906 53.292969 32.3125 C 54.046875 31.558594 54.046875 30.234375 53.480469 29.476562 Z M 53.480469 29.476562 "/>
  <path style=" stroke:none;fill-rule:nonzero;fill: rgb(125 138 139);fill-opacity:1;" d="M 50.359375 88.675781 L 37.75 76.066406 C 39.804688 73.308594 40.917969 69.960938 40.917969 66.523438 C 40.917969 57.648438 33.722656 50.453125 24.847656 50.453125 C 15.972656 50.453125 8.777344 57.648438 8.777344 66.523438 C 8.777344 75.398438 15.972656 82.589844 24.847656 82.589844 C 28.285156 82.589844 31.632812 81.480469 34.390625 79.425781 L 47 92.035156 Z M 50.359375 88.675781 "/>
  <path style=" stroke:none;fill-rule:nonzero;fill: rgb(43 121 173);fill-opacity:1;" d="M 37.136719 66.523438 C 37.136719 73.328125 31.652344 78.808594 24.847656 78.808594 C 18.042969 78.808594 12.558594 73.328125 12.558594 66.523438 C 12.558594 59.71875 18.042969 54.234375 24.847656 54.234375 C 31.652344 54.234375 37.136719 59.71875 37.136719 66.523438 "/>
  <path style=" stroke:none;fill-rule:nonzero;fill: rgb(89.019608%,94.901961%,99.215686%);fill-opacity:1;" d="M 29.574219 64.632812 C 28.816406 64.632812 28.0625 64.441406 27.492188 63.875 C 25.980469 62.363281 23.714844 62.363281 22.199219 63.875 C 21.066406 65.011719 19.175781 65.011719 18.230469 63.875 C 17.097656 62.742188 17.097656 60.851562 18.230469 59.90625 C 21.824219 56.125 27.871094 56.125 31.464844 59.90625 C 32.597656 61.039062 32.597656 62.742188 31.464844 63.875 C 30.898438 64.441406 30.328125 64.632812 29.574219 64.632812 Z M 29.574219 64.632812 "/>
  <path style=" stroke:none;fill-rule:nonzero;fill: rgb(149 165 166);fill-opacity:1;" d="M 42.59375 80.910156 L 50.359375 88.675781 L 47 92.035156 L 39.234375 84.269531 Z M 42.59375 80.910156 "/>
</g>
</svg>
