<?xml version="1.0" encoding="UTF-8"?>
<svg xmlns="http://www.w3.org/2000/svg" xmlns:xlink="http://www.w3.org/1999/xlink" viewBox="0 0 96 96" width="100px" height="100px">
<g xmlns="http://www.w3.org/2000/svg" id="surface17995845">
  <path style="fill-rule:nonzero;fill:rgb(58.431375%,64.705884%,65.098041%);fill-opacity:1;stroke-width:10;stroke-linecap:butt;stroke-linejoin:round;stroke:rgb(80.000001%,80.000001%,80.000001%);stroke-opacity:1;stroke-miterlimit:10;" d="M 104.566613 114.633742 L 114.700609 104.499746 L 157.770092 147.569229 L 147.636096 157.703225 Z M 104.566613 114.633742 " transform="matrix(0.525767,0,0,0.525767,2.784,2.784)"/>
  <path style="fill-rule:nonzero;fill:rgb(58.431375%,64.705884%,65.098041%);fill-opacity:1;stroke-width:10;stroke-linecap:butt;stroke-linejoin:round;stroke:rgb(80.000001%,80.000001%,80.000001%);stroke-opacity:1;stroke-miterlimit:10;" d="M 129.002619 71.668274 C 129.002619 103.333296 103.333296 129.002619 71.668274 129.002619 C 40.003251 129.002619 14.333928 103.333296 14.333928 71.668274 C 14.333928 40.003251 40.003251 14.333928 71.668274 14.333928 C 103.333296 14.333928 129.002619 40.003251 129.002619 71.668274 Z M 129.002619 71.668274 " transform="matrix(0.525767,0,0,0.525767,2.784,2.784)"/>
  <path style="fill-rule:nonzero;fill: rgb(125 138 139);fill-opacity:1;stroke-width:10;stroke-linecap:butt;stroke-linejoin:round;stroke: rgb(125 138 139);stroke-opacity:1;stroke-miterlimit:10;" d="M 116.297976 126.640001 L 126.431972 116.506005 L 157.599211 147.665814 L 147.465215 157.80724 Z M 116.297976 126.640001 " transform="matrix(0.525767,0,0,0.525767,2.784,2.784)"/>
  <path style="fill-rule:nonzero;fill:rgb(2.352941%,20%,31.764707%);fill-opacity:1;stroke-width:10;stroke-linecap:butt;stroke-linejoin:round;stroke:rgb(80.000001%,80.000001%,80.000001%);stroke-opacity:1;stroke-miterlimit:10;" d="M 118.251965 71.668274 C 118.251965 97.397033 97.397033 118.251965 71.668274 118.251965 C 45.939514 118.251965 25.084582 97.397033 25.084582 71.668274 C 25.084582 45.939514 45.939514 25.084582 71.668274 25.084582 C 97.397033 25.084582 118.251965 45.939514 118.251965 71.668274 Z M 118.251965 71.668274 " transform="matrix(0.525767,0,0,0.525767,2.784,2.784)"/>
  <path style="fill-rule:nonzero;fill:rgb(73.333335%,87.058824%,98.431373%);fill-opacity:1;stroke-width:10;stroke-linecap:butt;stroke-linejoin:round;stroke:rgb(80.000001%,80.000001%,80.000001%);stroke-opacity:1;stroke-miterlimit:10;" d="M 96.029984 56.25925 C 95.673362 56.615872 94.603498 56.972494 93.882825 56.972494 C 92.805531 56.972494 91.735666 56.25925 91.014993 55.538578 C 86.000003 49.810344 79.194475 46.585891 71.668274 46.585891 C 64.142073 46.585891 57.336545 49.810344 52.314124 55.538578 C 51.24426 56.972494 48.73305 57.336545 47.299134 55.902629 C 45.865218 54.825335 45.508596 52.314124 46.942512 50.880209 C 53.034797 43.718059 61.994914 39.416311 71.668274 39.416311 C 81.341634 39.416311 90.30175 43.718059 96.394035 50.880209 C 97.4639 52.314124 97.4639 54.825335 96.029984 56.25925 Z M 96.029984 56.25925 " transform="matrix(0.525767,0,0,0.525767,2.784,2.784)"/>
  <path style=" stroke:none;fill-rule:nonzero;fill: rgb(125 138 139);fill-opacity:1;" d="M 57.761719 63.054688 L 63.089844 57.726562 L 85.734375 80.371094 L 80.40625 85.699219 Z M 57.761719 63.054688 "/>
  <path style=" stroke:none;fill-rule:nonzero;fill:rgb(58.431375%,64.705884%,65.098041%);fill-opacity:1;" d="M 40.464844 10.320312 C 23.816406 10.320312 10.320312 23.816406 10.320312 40.464844 C 10.320312 57.113281 23.816406 70.609375 40.464844 70.609375 C 57.113281 70.609375 70.609375 57.113281 70.609375 40.464844 C 70.609375 23.816406 57.113281 10.320312 40.464844 10.320312 Z M 40.464844 10.320312 "/>
  <path style=" stroke:none;fill-rule:nonzero;fill:rgb(58.431375%,64.705884%,65.098041%);fill-opacity:1;" d="M 63.929688 69.367188 L 69.257812 64.039062 L 85.644531 80.421875 L 80.316406 85.753906 Z M 63.929688 69.367188 "/>
  <path style=" stroke:none;fill-rule:nonzero;fill:rgb(43 121 173);fill-opacity:1;" d="M 40.464844 15.972656 C 26.9375 15.972656 15.972656 26.9375 15.972656 40.464844 C 15.972656 53.992188 26.9375 64.957031 40.464844 64.957031 C 53.992188 64.957031 64.957031 53.992188 64.957031 40.464844 C 64.957031 26.9375 53.992188 15.972656 40.464844 15.972656 Z M 40.464844 15.972656 "/>
  <path style=" stroke:none;fill-rule:nonzero;fill:rgb(73.333335%,87.058824%,98.431373%);fill-opacity:1;" d="M 53.464844 29.535156 C 50.261719 25.769531 45.550781 23.507812 40.464844 23.507812 C 35.378906 23.507812 30.667969 25.769531 27.464844 29.535156 C 26.710938 30.289062 26.898438 31.609375 27.652344 32.175781 C 28.40625 32.929688 29.726562 32.738281 30.289062 31.984375 C 32.929688 28.972656 36.507812 27.277344 40.464844 27.277344 C 44.421875 27.277344 48 28.972656 50.636719 31.984375 C 51.015625 32.363281 51.578125 32.738281 52.144531 32.738281 C 52.523438 32.738281 53.085938 32.550781 53.273438 32.363281 C 54.027344 31.609375 54.027344 30.289062 53.464844 29.535156 Z M 53.464844 29.535156 "/>
</g>
</svg>
