<svg xmlns="http://www.w3.org/2000/svg" xmlns:xlink="http://www.w3.org/1999/xlink" viewBox="0,0,256,256" width="48px" height="48px" fill-rule="nonzero"><defs><linearGradient x1="28.529" y1="15.471" x2="33.6" y2="10.4" gradientUnits="userSpaceOnUse" id="color-1"><stop offset="0" stop-color="#057093"></stop><stop offset="1" stop-color="#0b95c3"></stop></linearGradient></defs><g transform=""><g fill="none" fill-rule="nonzero" stroke="none" stroke-width="1" stroke-linecap="butt" stroke-linejoin="miter" stroke-miterlimit="10" stroke-dasharray="" stroke-dashoffset="0" font-family="none" font-weight="none" font-size="none" text-anchor="none" style="mix-blend-mode: normal"><g transform="scale(5.33333,5.33333)"><path d="M39,16v25c0,1.105 -0.895,2 -2,2h-26c-1.105,0 -2,-0.895 -2,-2v-34c0,-1.105 0.895,-2 2,-2h17l3,8z" fill="#c6d8db"></path><path d="M28,5v9c0,1.105 0.895,2 2,2h9z" fill="url(#color-1)"></path><path d="M32.5,24h-17c-0.276,0 -0.5,-0.224 -0.5,-0.5v-1c0,-0.276 0.224,-0.5 0.5,-0.5h17c0.276,0 0.5,0.224 0.5,0.5v1c0,0.276 -0.224,0.5 -0.5,0.5z" fill="#057093"></path><path d="M30.5,28h-15c-0.276,0 -0.5,-0.224 -0.5,-0.5v-1c0,-0.276 0.224,-0.5 0.5,-0.5h15c0.276,0 0.5,0.224 0.5,0.5v1c0,0.276 -0.224,0.5 -0.5,0.5z" fill="#057093"></path><path d="M32.5,32h-17c-0.276,0 -0.5,-0.224 -0.5,-0.5v-1c0,-0.276 0.224,-0.5 0.5,-0.5h17c0.276,0 0.5,0.224 0.5,0.5v1c0,0.276 -0.224,0.5 -0.5,0.5z" fill="#057093"></path><path d="M30.5,36h-15c-0.276,0 -0.5,-0.224 -0.5,-0.5v-1c0,-0.276 0.224,-0.5 0.5,-0.5h15c0.276,0 0.5,0.224 0.5,0.5v1c0,0.276 -0.224,0.5 -0.5,0.5z" fill="#057093"></path></g></g><g fill="#055771" fill-rule="nonzero" stroke="none" stroke-width="1" stroke-linecap="butt" stroke-linejoin="miter" stroke-miterlimit="10" stroke-dasharray="" stroke-dashoffset="0" font-family="none" font-weight="none" font-size="none" text-anchor="none" style="mix-blend-mode: normal"><g id="text"><path d="M167,203.85333v3.16h-5.8v15.8h-3.91v-15.8h-5.73v-3.16zM172.46,203.85333l3.55,6.53l3.56,-6.53h4.49l-5.52,9.4l5.66,9.56h-4.54l-3.65,-6.64l-3.64,6.64h-4.55l5.67,-9.56l-5.52,-9.4zM200.44,203.85333v3.16h-5.81v15.8h-3.9v-15.8h-5.73v-3.16z"></path></g></g></g></svg>